<svg xmlns="http://www.w3.org/2000/svg" fill="none" viewBox="0 0 605 710" height="710" width="605">
<g clip-path="url(#clip0_841_423)">
<path fill="#111010" d="M530.595 3.94531H81.8901C41.0211 3.94531 7.89014 37.0762 7.89014 77.9453V636.177C7.89014 677.047 41.0211 710.177 81.8902 710.177H530.595C571.465 710.177 604.595 677.047 604.595 636.177V77.9453C604.595 37.0762 571.464 3.94531 530.595 3.94531Z"></path>
<path fill="white" d="M509.547 640.886C505.602 640.344 505.168 639.18 505.168 631.269V583.924C505.168 579.328 505.276 572.709 505.513 568.438C505.369 568.142 505.135 567.899 504.844 567.743C504.554 567.587 504.222 567.527 503.895 567.57C499.289 569.287 493.273 571.516 488.756 572.709C487.947 573.025 488.065 574.741 488.756 575.156L490.038 575.905C492.928 577.513 492.997 578.253 492.997 585.414V631.24C492.997 639.131 492.533 640.314 488.598 640.857L486.182 641.172C485.363 641.922 485.491 643.845 486.408 644.27C491.152 644.062 495.078 643.944 498.885 643.944C503.165 643.944 507.091 644.062 511.835 644.27C512.742 643.845 512.88 641.922 512.062 641.172L509.547 640.886Z"></path>
<path fill="white" d="M180.027 600.406C166.505 600.406 154.719 609.372 154.719 623.684C154.719 637.681 165.805 645.473 179.1 645.473C192.849 645.473 204.399 637.582 204.399 622.402C204.399 608.524 193.076 600.406 180.027 600.406ZM180.481 641.202C172.167 641.202 168.35 631.802 168.35 622.086C168.35 610.25 172.975 604.677 178.864 604.677C187.415 604.677 190.768 615.251 190.768 624.217C190.768 632.443 188.46 641.202 180.481 641.202Z"></path>
<path fill="white" d="M485.757 601.569C482.641 601.786 479.514 601.895 476.506 601.895C473.971 601.895 469.691 601.786 465.538 601.569C465.316 601.756 465.133 601.985 465.001 602.243C464.868 602.502 464.789 602.784 464.767 603.073C464.745 603.362 464.781 603.653 464.873 603.929C464.964 604.204 465.11 604.458 465.302 604.676L469.247 605.416C470.973 605.742 471.437 606.274 471.437 607.231C471.437 607.665 470.056 611.827 467.274 617.598L463.832 624.749C462.333 627.846 460.597 631.269 460.143 631.377C459.788 631.269 458.408 628.704 456.198 623.259L451.129 610.969C449.156 606.274 449.275 605.84 451.938 605.308L455.399 604.676C456.198 603.917 456.09 601.993 455.163 601.569C451.218 601.786 446.957 601.895 442.923 601.895C438.632 601.895 433.918 601.786 430.101 601.569C428.839 601.993 428.839 603.818 429.756 604.676L432.064 605.101C436.453 605.949 437.271 607.557 440.053 614.185L449.403 636.605C451.139 640.669 451.375 642.908 451.375 644.496C451.375 648.984 448.14 654.645 445.704 657.851C445.099 658.537 444.351 659.083 443.513 659.451C442.675 659.819 441.767 660 440.852 659.981L438.327 660.09C435.082 660.09 432.409 661.372 432.409 664.894C432.409 668.001 434.382 670.555 438.761 670.555C442.568 670.555 445.576 668.849 447.549 664.795C452.391 654.931 462.56 635.944 466.604 628.684L472.521 617.834C476.102 611.206 478.291 608.109 479.564 607.044C481.082 605.544 484.781 605.012 486.162 604.696C486.961 603.937 486.961 601.915 485.807 601.589"></path>
<path fill="white" d="M127.685 600.406C121.669 600.406 114.863 604.351 113.344 604.992C113.056 604.899 112.808 604.711 112.641 604.458C112.475 604.205 112.399 603.903 112.427 603.602C112.509 602.201 112.704 600.809 113.009 599.439C112.849 599.09 112.585 598.799 112.253 598.607C111.921 598.414 111.537 598.329 111.155 598.364C106.425 601.075 101.38 603.196 96.1336 604.677C95.8599 605.023 95.7021 605.446 95.6826 605.887C95.6632 606.328 95.783 606.764 96.0251 607.133L97.4059 607.981C100.296 609.904 100.296 610.753 100.296 615.566V658.502C100.296 666.393 99.8322 667.587 95.9068 668.119L92.9479 668.445C92.1391 669.185 92.2476 671.108 93.1747 671.532C97.7906 671.325 102.298 671.216 106.115 671.216C110.385 671.216 114.893 671.325 120.909 671.532C121.836 671.108 121.945 669.185 121.136 668.445L116.984 668.021C112.93 667.587 112.476 666.413 112.476 658.502V648.037C112.476 645.907 113.167 645.265 114.212 645.078C115.893 645.342 117.591 645.483 119.292 645.502C136.276 645.502 147.598 635.037 147.598 620.192C147.598 609.194 140.329 600.465 127.734 600.465M122.3 641.261C120.102 641.125 117.983 640.388 116.175 639.13C113.749 637.158 112.476 635.599 112.476 632.295V615.99C112.476 611.512 112.822 609.687 113.749 608.731C115.492 607.267 117.717 606.504 119.992 606.59C128.997 606.59 134.668 613.495 134.668 623.684C134.668 633.547 130.269 641.202 122.3 641.202"></path>
<path fill="white" d="M342.943 601.569C340.398 601.786 337.508 601.895 334.5 601.895C331.157 601.895 328.267 601.786 324.805 601.569C323.523 601.993 323.424 603.818 324.341 604.676L327.123 605.209C328.503 605.416 329.539 605.84 329.539 606.6C329.539 607.359 329.066 608.73 327.922 611.393C324.913 618.12 322.142 624.65 319.37 629.986C317.635 626.781 311.737 613.534 310.129 609.579C309.609 608.509 309.295 607.351 309.202 606.166C309.202 605.525 310.484 605.308 312.092 604.992L314.163 604.676C315.198 603.917 315.09 601.993 313.936 601.569C309.902 601.786 306.43 601.895 301.233 601.895H283.894C281.359 601.895 277.078 601.786 272.926 601.569C272.701 601.754 272.517 601.983 272.382 602.241C272.248 602.499 272.168 602.782 272.146 603.072C272.124 603.363 272.16 603.654 272.254 603.93C272.347 604.206 272.495 604.459 272.689 604.676L276.634 605.416C278.36 605.742 278.824 606.274 278.824 607.231C278.824 607.665 277.433 611.827 274.662 617.598L271.2 624.749C269.691 627.846 267.965 631.269 267.501 631.377C267.156 631.269 265.766 628.704 263.556 623.259L258.477 610.969C256.504 606.274 256.623 605.84 259.286 605.308L262.757 604.676C263.556 603.917 263.448 601.993 262.521 601.569C258.575 601.786 254.315 601.895 250.281 601.895C246 601.895 241.256 601.786 237.459 601.569C236.187 601.993 236.187 603.818 237.114 604.676L239.422 605.101C243.821 605.949 244.619 607.557 247.391 614.185L256.761 636.605C258.487 640.669 258.733 642.908 258.733 644.496C258.733 648.984 255.488 654.645 253.072 657.851C252.463 658.535 251.713 659.08 250.874 659.448C250.034 659.815 249.126 659.997 248.21 659.981L245.675 660.09C242.44 660.09 239.757 661.372 239.757 664.894C239.757 668.001 241.73 670.555 246.119 670.555C249.926 670.555 252.924 668.849 254.887 664.795C259.749 654.931 269.918 635.944 273.962 628.684L279.879 617.834C283.46 611.206 285.659 608.109 286.931 607.044C287.484 606.436 288.162 605.955 288.917 605.634C289.673 605.312 290.489 605.157 291.31 605.179C294.437 605.179 295.887 607.251 298.136 611.739C300.384 616.227 306.687 629.69 309.231 634.918C310.622 637.7 312.466 641.823 313.63 644.851C314.23 645.29 314.959 645.516 315.701 645.492C316.416 645.534 317.121 645.305 317.674 644.851C319.065 641.221 321.264 636.2 323.108 632.354L332.241 613.771C335.812 606.501 337.439 605.761 340.891 605.12L343.209 604.696C344.136 603.937 344.008 602.013 342.982 601.589"></path>
<path fill="white" d="M186.882 297.229L239.106 311.62C238.017 306.901 237.461 302.073 237.449 297.229H186.882Z"></path>
<path fill="white" d="M427.981 640.886C424.035 640.343 423.592 639.179 423.592 631.269V614.708C423.592 606.383 419.193 600.406 409.853 600.406C402.672 600.406 399.447 602.97 394.013 605.742C393.322 605.633 392.967 605.416 392.967 604.676C392.953 603.03 393.029 601.383 393.194 599.745C393.052 599.474 392.835 599.249 392.57 599.097C392.304 598.945 392.001 598.872 391.695 598.887C386.892 601.306 381.86 603.242 376.674 604.667C376.457 605.034 376.334 605.449 376.313 605.875C376.292 606.301 376.376 606.726 376.556 607.113L377.946 607.862C380.836 609.47 380.836 610.743 380.836 615.556V631.259C380.836 639.15 380.372 640.333 376.457 640.876L373.922 641.191C373.094 641.941 373.222 643.865 374.129 644.289C378.992 644.082 382.917 643.963 386.626 643.963C390.886 643.963 394.812 644.082 398.865 644.289C399.792 643.865 399.901 641.941 399.092 641.191L397.366 640.974C393.421 640.333 392.967 639.169 392.967 631.259V616.957C392.967 613.011 393.086 612.025 394.585 610.111C395.541 609.039 396.719 608.189 398.038 607.62C399.356 607.051 400.783 606.777 402.219 606.817C409.123 606.817 411.46 611.078 411.46 616.533V631.269C411.46 639.16 410.997 640.343 407.061 640.984L405.335 641.201C404.527 641.951 404.635 643.874 405.572 644.299C409.616 644.091 413.551 643.973 417.358 643.973C421.629 643.973 425.564 644.091 430.407 644.299C431.334 643.874 431.443 641.951 430.644 641.201L427.981 640.886Z"></path>
<path fill="white" d="M366.407 640.886C362.461 640.343 362.018 639.179 362.018 631.269V612.784C362.018 608.405 362.126 603.286 362.343 599.755C362.154 599.505 361.914 599.299 361.638 599.151C361.362 599.002 361.058 598.916 360.745 598.896C355.968 601.382 350.926 603.321 345.714 604.677C345.494 605.043 345.368 605.458 345.347 605.885C345.326 606.312 345.412 606.737 345.596 607.123L346.977 607.872C349.866 609.48 349.866 610.753 349.866 615.566V631.269C349.866 639.16 349.413 640.343 345.487 640.886L343.406 641.201C342.588 641.951 342.726 643.874 343.633 644.299C348.022 644.091 351.957 643.973 355.764 643.973C360.055 643.973 363.97 644.091 368.241 644.299C369.178 643.874 369.287 641.951 368.478 641.201L366.407 640.886Z"></path>
<path fill="white" d="M363.28 579.564C363.28 575.727 360.272 572.837 355.883 572.837C351.494 572.837 348.496 575.727 348.496 579.564C348.496 583.401 351.504 586.301 355.883 586.301C360.262 586.301 363.28 583.411 363.28 579.564Z"></path>
<path fill="white" d="M418.118 297.229L365.845 282.838C366.942 287.557 367.501 292.384 367.512 297.229H418.118Z"></path>
<path fill="white" d="M302.505 45.0073C163.221 45.0073 50.3008 157.935 50.3008 297.229C50.3008 436.522 163.221 549.45 302.505 549.45C441.789 549.45 554.709 436.532 554.709 297.229C554.709 157.926 441.779 45.0073 302.505 45.0073ZM274.583 94.0096C277.542 94.2759 281.753 94.2068 283.677 94.2068C285.304 94.2068 287.158 94.1477 289.003 94.0096C290.314 96.8601 298.727 105.205 301.43 107.73L309.133 114.891C312.378 117.929 319.548 124.952 320.317 125.356C320.544 125.159 320.544 124.823 320.544 123.768V110.847C320.544 105.915 320.475 99.7699 319.084 97.7873C318.394 96.801 317.112 96.3966 315.218 96.1401L313.463 95.933C312.762 95.4694 312.831 94.2068 313.611 93.9603C316.619 94.0983 319.459 94.1575 322.487 94.1575C325.811 94.1575 327.813 94.0983 330.604 93.9603C330.765 94.0645 330.899 94.2044 330.997 94.3692C331.095 94.5339 331.153 94.719 331.167 94.9099C331.182 95.1009 331.152 95.2926 331.08 95.4701C331.008 95.6475 330.896 95.806 330.752 95.933L328.977 96.2585C327.517 96.4656 326.186 96.7221 325.663 97.7873C324.588 99.8389 324.588 105.609 324.588 110.847V126.678C324.588 128.65 324.588 136.817 324.815 138.336C324.477 138.681 324.066 138.944 323.611 139.105C323.156 139.266 322.67 139.32 322.191 139.264C320.949 137.873 318.72 135.624 313.167 130.189L295.118 112.494C290.097 107.661 287.632 105.146 286.33 104.149C286.093 104.149 286.093 104.879 286.093 108.401V121.312C286.093 126.244 286.162 132.379 287.474 134.361C288.174 135.348 289.446 135.752 291.419 136.028L293.125 136.216C293.816 136.689 293.737 137.942 292.968 138.139C290.107 138.011 287.109 137.942 284.17 137.942C280.935 137.942 278.854 138.011 276.151 138.139C275.999 138.035 275.871 137.898 275.778 137.738C275.686 137.578 275.63 137.399 275.614 137.215C275.599 137.031 275.625 136.845 275.691 136.673C275.757 136.5 275.86 136.344 275.993 136.216L277.7 135.89C279.159 135.693 280.55 135.427 281.083 134.361C282.069 132.31 282.069 126.55 282.069 121.312V105.609C282.069 100.441 282.138 99.3754 279.515 97.4618C278.24 96.8053 276.868 96.359 275.451 96.1401L274.287 95.933C273.755 95.5384 273.824 94.2068 274.603 93.9603M159.927 278.143L158.339 278.478C155.311 279.07 154.315 280.53 151.869 285.965C146.859 297.16 142.568 306.234 138.87 315.555C137.883 318.011 137.351 319.787 136.749 321.059C136.403 321.232 136.021 321.32 135.635 321.316C135.223 321.348 134.812 321.259 134.451 321.059C133.05 316.956 128.898 308.394 126.265 302.703C123.306 308.73 120.347 314.825 117.881 321.059C117.531 321.229 117.146 321.317 116.757 321.316C116.346 321.35 115.934 321.261 115.573 321.059C114.508 318.1 112.861 314.5 110.938 310.456L98.2049 283.351C96.8142 280.392 96.1633 279.405 93.451 278.646L91.5967 278.182C91.4863 278.048 91.404 277.893 91.3546 277.726C91.3052 277.559 91.2896 277.384 91.309 277.211C91.3283 277.039 91.382 276.871 91.467 276.72C91.552 276.568 91.6665 276.435 91.8039 276.328C94.171 276.466 96.9424 276.525 99.7829 276.525C102.17 276.525 104.714 276.466 107.841 276.328C108.092 276.561 108.25 276.877 108.286 277.218C108.323 277.559 108.235 277.901 108.038 278.182L106.391 278.587C105.533 278.784 104.872 279.05 104.872 279.642C104.872 280.234 105.336 281.615 106.46 284.081L114.35 301.184C116.599 306.215 118.296 309.657 118.966 310.722C120.357 308.069 121.748 304.952 123.395 301.51C123.782 300.702 124.093 299.86 124.322 298.994C124.206 298.315 124.007 297.653 123.73 297.022L116.826 282.315C115.504 279.662 114.775 279.001 112.999 278.606L111.076 278.202C110.965 278.068 110.882 277.914 110.832 277.747C110.782 277.581 110.765 277.406 110.784 277.233C110.802 277.06 110.855 276.893 110.939 276.741C111.023 276.589 111.137 276.455 111.273 276.348C113.986 276.486 116.205 276.545 118.404 276.545C121.047 276.545 123.622 276.486 126.294 276.348C126.553 276.579 126.712 276.902 126.736 277.249C126.76 277.595 126.647 277.937 126.423 278.202L124.647 278.606C123.908 278.804 123.523 279.07 123.523 279.534C123.578 280.291 123.779 281.032 124.115 281.713C125.565 285.028 127.074 288.411 128.602 291.39C129.727 289.131 130.782 286.685 131.837 284.229C132.545 282.787 133.034 281.248 133.287 279.662C133.287 279.198 132.893 278.873 131.975 278.675L130.121 278.212C129.902 277.939 129.8 277.591 129.837 277.244C129.874 276.896 130.047 276.578 130.318 276.358C132.104 276.496 133.958 276.555 136.463 276.555C138.771 276.555 140.408 276.496 142.47 276.358C142.617 276.466 142.739 276.606 142.827 276.767C142.916 276.928 142.967 277.106 142.98 277.289C142.992 277.473 142.964 277.656 142.898 277.827C142.832 277.999 142.73 278.153 142.598 278.281L140.951 278.616C138.505 279.139 137.844 279.869 135.733 283.785C134.273 286.438 132.626 290.009 131.177 292.988C130.881 293.547 130.643 294.136 130.466 294.743C130.584 295.291 130.762 295.824 130.999 296.331L133.84 302.486C135.22 305.445 136.936 309.519 137.538 310.643C140.901 302.752 144.442 294.013 147.963 285.6C149.088 282.877 150.015 280.293 150.015 279.435C150.015 278.971 148.821 278.705 147.766 278.449L146.642 278.113C146.497 278.003 146.381 277.86 146.303 277.695C146.225 277.531 146.188 277.35 146.195 277.168C146.201 276.986 146.252 276.809 146.342 276.651C146.431 276.492 146.558 276.358 146.711 276.259C149.147 276.397 151.198 276.456 153.437 276.456C155.676 276.456 157.737 276.397 159.779 276.259C160.048 276.481 160.219 276.799 160.256 277.146C160.293 277.493 160.193 277.84 159.976 278.113M301.035 503.555C293.944 503.555 289.93 501.582 288.391 500.764C287 499.373 285.994 494.846 286.073 490.693C286.388 490.391 286.794 490.203 287.228 490.156C287.662 490.11 288.098 490.208 288.47 490.437C289.851 493.82 294.013 500.912 301.578 500.912C307.436 500.912 310.75 497.854 310.75 493.82C310.75 490.042 308.679 486.994 302.86 484.203L299.536 482.625C293.757 479.833 288.687 475.789 288.687 469.802C288.687 463.243 294.398 457.68 305.651 457.68C309.665 457.68 312.555 458.469 316.234 459.061C317.063 460.52 317.832 464.9 317.832 468.017C317.496 468.305 317.077 468.48 316.636 468.515C316.195 468.551 315.754 468.445 315.376 468.214C314.212 464.772 311.52 460.323 304.961 460.323C298.797 460.323 296.242 463.756 296.242 467.228C296.242 470.009 298.481 472.998 303.58 475.316L308.354 477.496C313.364 479.754 318.927 483.867 318.927 490.555C318.927 498.11 312.2 503.476 301.026 503.476M364.513 316.729C361.35 326.703 355.836 335.772 348.437 343.17C341.037 350.568 331.968 356.08 321.994 359.241L302.505 426.363L283.016 359.241C273.04 356.083 263.97 350.572 256.57 343.173C249.17 335.775 243.657 326.705 240.497 316.729L173.429 297.229L240.497 277.738C243.657 267.761 249.17 258.691 256.57 251.29C263.969 243.89 273.04 238.377 283.016 235.217L302.505 168.144L321.994 235.217C331.97 238.377 341.041 243.89 348.44 251.29C355.84 258.691 361.353 267.761 364.513 277.738L431.581 297.229L364.513 316.729ZM503.067 276.288C503.363 277.413 503.826 282.65 504.29 285.501C503.974 286.024 502.436 286.162 501.814 285.767C500.582 281.921 499.428 280.263 496.962 279.731C494.934 279.29 492.862 279.092 490.788 279.139H485.62C482.306 279.139 482.306 279.267 482.306 283.084V294.25C482.306 295.966 482.384 296.035 484.16 296.035H487.868C494.565 296.035 495.877 295.966 496.419 293.076L496.962 290.827C497.333 290.592 497.766 290.473 498.205 290.486C498.644 290.498 499.07 290.641 499.428 290.896C499.339 292.682 499.201 295.069 499.201 297.525C499.201 299.981 499.339 302.348 499.428 304.429C499.059 304.657 498.638 304.784 498.205 304.798C497.773 304.812 497.344 304.712 496.962 304.508L496.419 301.855C495.877 299.073 494.565 298.896 487.868 298.896H484.16C482.384 298.896 482.306 299.034 482.306 300.691V309.105C482.306 312.488 482.463 314.875 483.617 316.009C484.544 316.946 485.856 317.469 492.326 317.469C502.13 317.607 502.682 315.684 505.395 310.318C505.787 310.092 506.245 310.007 506.693 310.079C507.14 310.151 507.549 310.375 507.85 310.712C507.202 314.048 506.11 317.282 504.606 320.329C501.223 320.181 495.729 320.122 486.704 320.122H477.917C474.514 320.122 469.809 320.181 466.338 320.329C466.183 320.22 466.055 320.078 465.962 319.914C465.868 319.749 465.813 319.566 465.799 319.378C465.784 319.189 465.812 319 465.88 318.823C465.947 318.647 466.053 318.488 466.19 318.357L469.03 318.08C472.67 317.755 473.36 317.558 473.36 310.535V285.876C473.36 278.863 472.67 278.666 469.03 278.202L467.817 278.064C467.689 277.934 467.59 277.778 467.526 277.607C467.463 277.436 467.437 277.253 467.45 277.071C467.463 276.889 467.515 276.712 467.602 276.551C467.689 276.391 467.81 276.251 467.955 276.141C470.914 276.279 474.514 276.338 477.917 276.338H492.642C497.573 276.338 502.061 276.279 503.067 276.141"></path>
<path fill="white" d="M233.524 640.886C229.579 640.343 229.125 639.18 229.125 631.269V583.924C229.125 579.327 229.243 572.709 229.47 568.438C229.329 568.141 229.097 567.898 228.808 567.742C228.519 567.586 228.188 567.525 227.863 567.57C223.237 569.286 217.23 571.515 212.723 572.709C211.914 573.025 212.023 574.741 212.723 575.155L213.995 575.905C216.875 577.512 216.954 578.252 216.954 585.413V631.239C216.954 639.13 216.491 640.314 212.565 640.856L210.139 641.172C209.32 641.922 209.449 643.845 210.366 644.269C215.11 644.062 219.035 643.944 222.852 643.944C227.123 643.944 231.058 644.062 235.792 644.269C236.71 643.845 236.828 641.922 236.029 641.172L233.524 640.886Z"></path>
<path fill="white" d="M539.392 0H65.5981C48.206 0.0182771 31.5315 6.93583 19.2334 19.2348C6.93536 31.5337 0.0182759 48.2094 0 65.6027V644.397C0.0182759 661.791 6.93536 678.466 19.2334 690.765C31.5315 703.064 48.206 709.982 65.5981 710H539.392C556.787 709.984 573.465 703.068 585.767 690.769C598.068 678.47 604.989 661.793 605.01 644.397V65.6027C604.989 48.2067 598.068 31.5296 585.767 19.2307C573.465 6.93175 556.787 0.0156618 539.392 0ZM539.392 701.3H65.5981C50.5253 701.279 36.076 695.281 25.4189 684.622C14.7617 673.962 8.76665 659.511 8.74839 644.437V65.6027C8.76405 50.5289 14.7586 36.0771 25.4166 25.4183C36.0746 14.7596 50.5255 8.76466 65.5981 8.74899H539.392C554.466 8.76205 568.92 14.7558 579.58 25.4149C590.24 36.0739 596.236 50.5272 596.252 65.6027V644.397C596.233 659.473 590.237 673.926 579.578 684.586C568.918 695.246 554.467 701.243 539.392 701.261"></path>
<path fill="white" d="M302.505 181.608L288.115 233.826C292.835 232.741 297.662 232.188 302.505 232.179V181.608Z"></path>
<path fill="white" d="M302.505 239.823C291.151 239.821 280.052 243.186 270.611 249.493C261.17 255.8 253.811 264.765 249.465 275.254C245.119 285.744 243.981 297.286 246.195 308.423C248.408 319.559 253.875 329.789 261.902 337.818C269.929 345.847 280.157 351.316 291.293 353.532C302.428 355.747 313.97 354.611 324.459 350.266C334.949 345.922 343.914 338.564 350.222 329.123C356.53 319.683 359.897 308.583 359.897 297.229C359.879 282.012 353.826 267.422 343.068 256.661C332.309 245.899 317.721 239.844 302.505 239.823Z"></path>
<path fill="white" d="M302.505 412.859L316.875 360.642C312.155 361.725 307.329 362.281 302.485 362.299L302.505 412.859Z"></path>
</g>
<defs>
<clipPath id="clip0_841_423">
<rect fill="white" height="710" width="605"></rect>
</clipPath>
</defs>
</svg>
