<svg width="146" height="146" viewBox="0 0 146 146" fill="none" xmlns="http://www.w3.org/2000/svg">
<circle cx="72.8234" cy="72.8234" r="51.5" transform="rotate(-143 72.8234 72.8234)" fill="#FBFF00" stroke="black"/>
<path d="M65.7605 67.1112L60.874 71.3625C60.3835 71.7742 60.3927 71.9614 60.8621 72.3753L61.6094 73.0586L60.9217 73.6522L55.8232 69.8102L56.5109 69.2166L57.412 69.7755C57.9537 70.0935 58.1601 70.0988 58.6315 69.6726L63.0755 65.8091C65.3648 63.8079 65.5589 62.8723 64.2556 61.8902C63.0097 60.9513 60.955 61.0859 58.2665 63.4174L54.5872 66.625C54.1158 67.0512 54.1203 67.2048 54.5753 67.6378L55.3225 68.3211L54.6348 68.9147L49.5746 65.1016L50.2624 64.508L51.1252 65.038C51.6669 65.356 51.8733 65.3613 52.3446 64.9351L59.554 58.6779C60.0301 58.2854 60.0304 58.1654 59.5707 57.6987L58.8234 57.0154L59.5112 56.4218L63.153 59.1661L61.3205 60.7603L61.3397 60.7747C63.2183 59.9966 64.9697 60.2646 66.4647 61.3912C68.9373 63.2544 67.8671 65.2728 65.7605 67.1112ZM75.8067 70.1438C74.0624 68.8294 71.9202 69.4389 70.1984 70.9662L75.3544 74.8516C75.7055 74.5452 75.9846 74.2146 76.2157 73.9079C77.4001 72.3362 76.9759 71.0248 75.8067 70.1438ZM74.7593 79.031C72.1249 80.7722 69.3274 80.3771 67.0082 78.6294C64.1331 76.4629 64.0343 73.4434 65.8542 71.0284C68.2952 67.7891 72.969 66.2925 76.7258 69.1235C79.0067 70.8422 80.0471 73.4894 77.9239 76.307C77.5917 76.7478 77.1586 77.2029 76.6728 77.6482L69.1018 71.943C68.5246 72.4696 68.0482 72.9822 67.6871 73.4613C66.6472 74.8414 66.4036 76.4008 67.9178 77.5419C69.4129 78.6685 71.1507 78.5956 72.6317 77.4278L74.7593 79.031ZM85.8957 87.7535L92.5036 84.2885C93.3639 83.8249 93.8444 83.586 93.3894 83.1529L92.7427 82.5754L93.4305 81.9818L97.4173 84.9861L96.7295 85.5797L96.0873 85.1558C95.6895 84.8861 95.1328 84.8273 94.0084 85.3623L83.3598 90.5606L81.9222 89.4773L86.7496 81.6354L77.4754 86.1264L76.0187 85.0287L81.9827 75.519C82.2333 75.1068 82.3155 74.8382 82.0424 74.6023L81.3957 74.0249L82.0835 73.4312L86.6644 76.8832L85.9767 77.4769L85.1858 76.9711C84.6633 76.6675 84.4664 76.7294 84.1533 77.1847L80.0833 83.3435L89.367 78.9198L90.7471 79.9597L85.8957 87.7535Z" fill="black"/>
</svg>
